<?xml version="1.0" encoding="UTF-8" standalone="no"?>
<svg
   xmlns:osb="http://www.openswatchbook.org/uri/2009/osb"
   xmlns:dc="http://purl.org/dc/elements/1.1/"
   xmlns:cc="http://creativecommons.org/ns#"
   xmlns:rdf="http://www.w3.org/1999/02/22-rdf-syntax-ns#"
   xmlns:svg="http://www.w3.org/2000/svg"
   xmlns="http://www.w3.org/2000/svg"
   xmlns:sodipodi="http://sodipodi.sourceforge.net/DTD/sodipodi-0.dtd"
   xmlns:inkscape="http://www.inkscape.org/namespaces/inkscape"
   inkscape:version="1.0.1 (0767f8302a, 2020-10-17)"
   sodipodi:docname="portal de proveedores.svg"
   version="1.1"
   viewBox="0 0 787.06663 428.12769"
   height="428.12769"
   width="787.06663"
   data-name="Layer 1"
   id="a2525de1-ea14-4c9e-818b-1d269b9a5d3c">
  <metadata
     id="metadata109">
    <rdf:RDF>
      <cc:Work
         rdf:about="">
        <dc:format>image/svg+xml</dc:format>
        <dc:type
           rdf:resource="http://purl.org/dc/dcmitype/StillImage" />
      </cc:Work>
    </rdf:RDF>
  </metadata>
  <defs
     id="defs107">
    <inkscape:path-effect
       only_selected="false"
       apply_with_weight="true"
       apply_no_weight="true"
       helper_size="0"
       steps="2"
       weight="33.333333"
       lpeversion="1"
       is_visible="true"
       id="path-effect965"
       effect="bspline" />
    <inkscape:path-effect
       only_selected="false"
       apply_with_weight="true"
       apply_no_weight="true"
       helper_size="0"
       steps="2"
       weight="33.333333"
       lpeversion="1"
       is_visible="true"
       id="path-effect898"
       effect="bspline" />
    <inkscape:path-effect
       only_selected="false"
       apply_with_weight="true"
       apply_no_weight="true"
       helper_size="0"
       steps="2"
       weight="33.333333"
       lpeversion="1"
       is_visible="true"
       id="path-effect886"
       effect="bspline" />
    <inkscape:path-effect
       only_selected="false"
       apply_with_weight="true"
       apply_no_weight="true"
       helper_size="0"
       steps="2"
       weight="33.333333"
       lpeversion="1"
       is_visible="true"
       id="path-effect882"
       effect="bspline" />
    <linearGradient
       id="linearGradient861"
       osb:paint="solid">
      <stop
         style="stop-color:#0084c8;stop-opacity:1;"
         offset="0"
         id="stop859" />
    </linearGradient>
  </defs>
  <sodipodi:namedview
     inkscape:current-layer="layer2"
     inkscape:window-maximized="1"
     inkscape:window-y="0"
     inkscape:window-x="3286"
     inkscape:cy="338.04299"
     inkscape:cx="626.28705"
     inkscape:zoom="5.288142"
     showgrid="false"
     id="namedview105"
     inkscape:window-height="1043"
     inkscape:window-width="1920"
     inkscape:pageshadow="2"
     inkscape:pageopacity="0"
     guidetolerance="10"
     gridtolerance="10"
     objecttolerance="10"
     borderopacity="1"
     bordercolor="#666666"
     pagecolor="#ffffff"
     inkscape:document-rotation="0" />
  <path
     id="path2"
     fill="#f2f2f2"
     transform="translate(-206.46668 -235.93615)"
     d="M384.646,608.21367a400.444,400.444,0,0,1-3.77512,51.45474c-.08268.59886-.17275,1.19769-.25578,1.7965l-161.217-.9008c-.47335-.59474-.93926-1.19662-1.39067-1.8057-1.50514-2.01572-2.91582-4.08873-4.21082-6.23325-6.22436-10.3314-9.07393-22.42741-6.21838-30.773l.05114-.12968a14.64433,14.64433,0,0,1,2.85818-4.96628c6.5106-7.32867,19.67437-6.107,31.62022-.19158-10.71463-11.72839-19.24628-26.52779-19.89453-39.738-.63561-12.88512,6.10195-22.08987,13.40965-29.91231.23979-.25859.47953-.51.71927-.76137.11636-.12931.23974-.2514.35575-.38072,5.70157-5.96126,12.34862-11.83781,21.9698-11.12695,10.55192.781,22.25086,9.61942,30.45367,19.91855,8.20285,10.29191,13.65383,21.98365,19.179,33.39424,5.53227,11.4034,11.51773,23.09817,20.39527,32.84507-12.024-15.20882-21.71855-32.51307-25.2997-49.34272s-.42948-32.99345,10.28674-40.91958a25.06425,25.06425,0,0,1,10.97874-4.42987c.4623-.07683.93191-.13921,1.4089-.19432,9.92021-1.12872,21.76466,2.30225,31.84216,10.5034,11.09815,9.03006,18.79258,22.41676,22.621,35.1248C384.36161,584.153,384.76957,596.387,384.646,608.21367Z"
     style="fill:#44d2a8" />
  <path
     id="path4"
     fill="#fff"
     transform="translate(-206.46668 -235.93615)"
     d="M279.16848,660.89808l-3.08277-.01723q-1.46826-.918-2.95039-1.81441c-.61167-.38609-1.23046-.7578-1.84957-1.13675q-15.33839-9.36783-30.8686-17.97134-15.51607-8.61064-31.18819-16.42786a1.292,1.292,0,0,1-.74272-1.47718.37233.37233,0,0,1,.05137-.108c.14573-.27357.47144-.38731.9468-.15359,1.28153.64258,2.57046,1.2852,3.8519,1.94224q15.71491,7.951,31.29494,16.69565,15.56928,8.7409,30.96116,18.25343c.21574.13117.4318.26958.64754.40075C277.21848,659.68858,278.19,660.29333,279.16848,660.89808Z" />
  <path
     id="path6"
     fill="#fff"
     transform="translate(-206.46668 -235.93615)"
     d="M318.917,661.12017l-1.90628-.01065c-.43-.60168-.85249-1.20337-1.28244-1.80509q-15.15248-21.24829-30.2986-42.4966-24.80354-34.78677-49.59224-69.57343a1.22792,1.22792,0,0,1-.21449-.42c-.14133-.51347.23584-.81462.71927-.76137a1.44816,1.44816,0,0,1,1.00723.64105q13.90617,19.50841,27.80537,39.00232,24.6744,34.61277,49.34179,69.21823c1.046,1.46443,2.092,2.936,3.138,4.40046C318.06451,659.91681,318.49446,660.51853,318.917,661.12017Z" />
  <path
     id="path8"
     fill="#fff"
     transform="translate(-206.46668 -235.93615)"
     d="M361.38558,650.05c-.09728,3.21264-.30991,6.37409-.58761,9.50626q-.08064.89854-.16164,1.797l-2.00007-.01117c.06117-.59894.12234-1.19793.1761-1.797.42263-4.525.7225-9.10116.76322-13.80157a192.53934,192.53934,0,0,0-3.79046-38.81036,241.64483,241.64483,0,0,0-11.73951-40.32059,276.90175,276.90175,0,0,0-19.20756-39.893,1.0655,1.0655,0,0,1-.17656-.7086c.08251-.57.84148-.739,1.4089-.19432a1.65516,1.65516,0,0,1,.28672.36263q1.38395,2.37972,2.71738,4.7736a276.709,276.709,0,0,1,18.38389,40.03277,240.50138,240.50138,0,0,1,10.94448,40.38115A189.95289,189.95289,0,0,1,361.38558,650.05Z" />
  <path
     id="path10"
     fill="#ccc"
     transform="translate(-206.46668 -235.93615)"
     d="M919.86492,567.54652c0-7.732-29.10157-14-65-14s-65,6.268-65,14c0,4.95544,11.96435,9.30621,30,11.79431v76.70569a6.5,6.5,0,0,0,13,0v-75.324c6.87207.53241,14.27685.824,22,.824s15.12793-.29163,22-.824v75.324a6.5,6.5,0,0,0,13,0V579.34083C907.90056,576.85273,919.86492,572.502,919.86492,567.54652Z" />
  <circle
     id="circle12"
     fill="#2f2e41"
     r="28"
     cy="175.46783"
     cx="655.58561" />
  <polygon
     style="fill:#ffb8b8;fill-opacity:1"
     id="polygon14"
     fill="#a0616a"
     points="585.905 415.034 573.645 415.034 567.813 367.746 585.907 367.746 585.905 415.034" />
  <path
     id="path16"
     fill="#2f2e41"
     d="M564.88821,411.53062h23.64387a0,0,0,0,1,0,0v14.88687a0,0,0,0,1,0,0H550.00135a0,0,0,0,1,0,0v0A14.88686,14.88686,0,0,1,564.88821,411.53062Z" />
  <polygon
     style="fill:#ffb8b8;fill-opacity:1"
     id="polygon18"
     fill="#a0616a"
     points="566.768 408.192 555.07 404.521 563.662 357.656 580.926 363.073 566.768 408.192" />
  <path
     id="path20"
     fill="#2f2e41"
     transform="translate(20.72246 -432.85442) rotate(17.42262)"
     d="M751.8009,635.4624h23.64387a0,0,0,0,1,0,0v14.88687a0,0,0,0,1,0,0H736.914a0,0,0,0,1,0,0v0A14.88686,14.88686,0,0,1,751.8009,635.4624Z" />
  <path
     style="fill:#0e232e"
     id="path22"
     fill="#2f2e41"
     transform="translate(-206.46668 -235.93615)"
     d="M777.2227,625.26043a4.46207,4.46207,0,0,1-1.572-.28614l-9.01929-3.38183a4.51574,4.51574,0,0,1-2.814-5.1836c2.27075-10.21,10.00976-44.9707,14.24731-63.61523,5.02588-22.11523,78.34278-26.22461,81.46119-26.38867l.25634-.01367,8.24756,10.36425c2.98023,9.57911,2.03565,17.05079-2.80762,22.208-14.13232,15.04688-56.32739,5.71-61.35888,4.52832L781.43608,622.363A4.513,4.513,0,0,1,777.2227,625.26043Z" />
  <path
     style="fill:#0e232e"
     id="path24"
     fill="#2f2e41"
     transform="translate(-206.46668 -235.93615)"
     d="M790.2227,632.26043a4.46207,4.46207,0,0,1-1.572-.28614l-9.01929-3.38183a4.51574,4.51574,0,0,1-2.814-5.1836c2.27075-10.21,10.00976-44.9707,14.24731-63.61523,5.02588-22.11523,78.34278-26.22461,81.46119-26.38867l.25634-.01367,8.24756,10.36425c2.98023,9.57911,2.03565,17.05079-2.80762,22.208-14.13232,15.0459-56.32714,5.71-61.35888,4.52832L794.43608,629.363A4.513,4.513,0,0,1,790.2227,632.26043Z" />
  <path
     id="path26"
     fill="#a0616a"
     transform="translate(-206.46668 -235.93615)"
     d="M764.128,488.24044a10.52657,10.52657,0,0,1,.88488,1.40152l49.32026,5.19623,7.09959-9.734,16.09071,8.79449L823.57892,517.52l-60.48739-15.42252a10.49579,10.49579,0,1,1,1.03642-13.857Z" />
  <path
     id="path28"
     fill="#003377"
     transform="translate(-206.46668 -235.93615)"
     d="M878.741,547.72234a4.50062,4.50062,0,0,1-2.04956-.501c-9.8623-5.01464-29.0664-13.69921-46.87451-15.5166a4.39222,4.39222,0,0,1-3.09546-1.75,4.5186,4.5186,0,0,1-.83374-3.51074c1.60694-8.89551,5.29321-31.54687,4.81836-49.70117a24.59626,24.59626,0,0,1,18.582-24.46777h0A79.86638,79.86638,0,0,1,859.201,450.321a24.79543,24.79543,0,0,1,27.55933,28.76172c-3.17578,18.81348-6.3772,45.08985-3.59473,63.43262a4.50689,4.50689,0,0,1-1.8186,4.34863A4.42877,4.42877,0,0,1,878.741,547.72234Z" />
  <path
     id="path30"
     fill="#003377"
     transform="translate(-206.46668 -235.93615)"
     d="M831.61894,499.87078a4.49612,4.49612,0,0,1-1.78662-.37305l-12.8479-5.56152a4.5057,4.5057,0,0,1-2.342-5.917l9.93164-22.94239a11.49973,11.49973,0,1,1,21.10718,9.13575L835.7498,497.155a4.51063,4.51063,0,0,1-4.13086,2.71582Z" />
  <circle
     style="fill:#ffb8b8;fill-opacity:1"
     id="circle32"
     fill="#a0616a"
     r="24.56103"
     cy="182.01901"
     cx="654.56199" />
  <path
     id="path34"
     fill="#2f2e41"
     d="M836.02556,405.88808a88.59047,88.59047,0,0,0,38.32618,12.62844l-4.03991-4.84062a29.68836,29.68836,0,0,0,9.17074,1.82106c3.1302-.04875,6.40986-1.254,8.18641-3.83171a9.342,9.342,0,0,0,.62532-8.62974,17.69416,17.69416,0,0,0-5.56637-6.96015,33.1395,33.1395,0,0,0-30.84447-5.51247,19.80612,19.80612,0,0,0-9.21237,5.90942c-2.32839,2.87239-6.811,5.43157-5.6188,8.93167Z"
     transform="translate(-206.46668 -235.93615)" />
  <path
     id="path36"
     fill="#2f2e41"
     d="m 646.90029,162.24774 c 7.74652,-7.85555 -4.24056,-10.5023 6.10159,-14.34395 6.63872,-2.45942 29.67419,2.72277 36.61469,4.11946 6.9405,1.39669 8.40756,4.64478 10.34386,11.45448 1.58332,5.56836 4.21336,8.41518 1.75625,13.65693 -2.45713,5.24175 0.64582,4.68743 -1.34123,10.12481 -8.80548,24.0955 1.67099,63.35625 27.2674,61.63781 -6.81938,0.91438 -2.65014,7.75857 -9.31574,9.46435 -6.6656,1.70578 -11.97882,-6.22575 -16.93225,-11.00104 -5.24092,-5.05244 -4.73336,-5.79869 -9.09874,-11.6243 l -2.23191,-2.9785 c -3.30941,-4.41643 -19.55598,-23.4257 -9.07645,-48.89752 2.09976,-5.10371 1.35959,-22.88367 -4.15899,-22.83683 -4.18253,0.0355 -5.73584,0.0553 -9.09007,2.55409 -3.35423,2.49875 -6.90445,5.16474 -11.07059,5.53641 -4.16614,0.37167 -8.92293,-2.71145 -8.61118,-6.8825"
     sodipodi:nodetypes="ccsssscssssssssc" />
  <path
     style="fill:#ffb8b8;fill-opacity:1"
     id="path38"
     fill="#a0616a"
     transform="translate(-206.46668 -235.93615)"
     d="M819.73566,541.4132a11.00442,11.00442,0,1,1,4.24194-21.16357h.00024a10.56725,10.56725,0,0,1,1.31153.66455l44.74072-20.08691,1.25683-12.13428,19.28589-.51611-.12768,20.20166a10.88006,10.88006,0,0,1-7.86109,10.34277l-52.322,14.89307a10.25939,10.25939,0,0,1-.35913,1.019,11.04529,11.04529,0,0,1-10.16723,6.77978Z" />
  <path
     id="path40"
     fill="#003377"
     transform="translate(-206.46668 -235.93615)"
     d="M888.93937,498.07985a4.49622,4.49622,0,0,1-1.76188.47641l-13.97358.85916a4.5057,4.5057,0,0,1-4.76751-4.21507l-1.53376-24.95271a11.49972,11.49972,0,1,1,22.956-1.41237l1.534,24.95261a4.51061,4.51061,0,0,1-2.45329,4.292Z" />
  <path
     style="fill:#000000;fill-opacity:1"
     id="path42"
     fill="#3f3d56"
     transform="translate(1431.6726 844.93615) rotate(180)"
     d="M779.56963,536.93615h79a3.5,3.5,0,0,1,3.5,3.5v0a3.5,3.5,0,0,1-3.5,3.5h-79a3.5,3.5,0,0,1-3.5-3.5v0A3.5,3.5,0,0,1,779.56963,536.93615Z" />
  <path
     style="fill:#000000;fill-opacity:1"
     id="path44"
     fill="#3f3d56"
     d="M745.06964,537.43615v-49a6.50737,6.50737,0,0,1,6.5-6.5h89a6.50737,6.50737,0,0,1,6.5,6.5v49a6.50736,6.50736,0,0,1-6.5,6.5h-89A6.50736,6.50736,0,0,1,745.06964,537.43615Z"
     transform="translate(-206.46668 -235.93615)" />
  <path
     id="path48"
     fill="#ffb8b8"
     transform="translate(-206.46668 -235.93615)"
     d="M483.24743,455.27334a10.05575,10.05575,0,0,0-15.32037-1.74408l-31.75443-16.3901,1.974,18.46448,29.8519,12.73351a10.11027,10.11027,0,0,0,15.24888-13.06381Z" />
  <path
     id="path50"
     fill="#ccc"
     transform="translate(-206.46668 -235.93615)"
     d="M455.02714,462.70552a4.505,4.505,0,0,1-3.66895.03914L421.196,449.66058A46.37347,46.37347,0,0,1,397.734,426.963l-15.85695-33.47116a14.49652,14.49652,0,1,1,22.90078-17.78059l27.8727,51.71356,25.73681,19.44154a4.5147,4.5147,0,0,1,1.58663,4.92131l-2.5261,8.15923a4.50568,4.50568,0,0,1-1.52373,2.21147A4.45458,4.45458,0,0,1,455.02714,462.70552Z"
     style="fill:#81b4fe" />
  <circle
     id="circle52"
     fill="#ffb8b8"
     r="24.56103"
     cy="93.63093"
     cx="174.71248" />
  <polygon
     id="polygon54"
     fill="#ffb8b8"
     points="184.661 415.827 196.92 415.827 202.753 368.539 184.658 368.539 184.661 415.827" />
  <path
     id="path56"
     fill="#2f2e41"
     transform="translate(609.0948 1075.45169) rotate(179.99738)"
     d="M388.50041,648.25979h38.53073a0,0,0,0,1,0,0v14.88687a0,0,0,0,1,0,0H403.38727a14.88686,14.88686,0,0,1-14.88686-14.88686v0A0,0,0,0,1,388.50041,648.25979Z" />
  <polygon
     id="polygon58"
     fill="#ffb8b8"
     points="144.661 415.827 156.92 415.827 162.753 368.539 144.658 368.539 144.661 415.827" />
  <path
     id="path60"
     fill="#2f2e41"
     transform="translate(529.0948 1075.45352) rotate(179.99738)"
     d="M348.50041,648.25979h38.53073a0,0,0,0,1,0,0v14.88687a0,0,0,0,1,0,0H363.38727a14.88686,14.88686,0,0,1-14.88686-14.88686v0A0,0,0,0,1,348.50041,648.25979Z" />
  <path
     style="fill:#0e232e"
     id="path62"
     fill="#2f2e41"
     transform="translate(-206.46668 -235.93615)"
     d="M346.84652,638.2278a4.49854,4.49854,0,0,1-1.075-3.55859l21.4646-160.98535,53.32861,9.05664,5.69141-3.415L411.53866,632.0696a4.51232,4.51232,0,0,1-4.09619,3.96387l-16.14771,1.3457a4.49918,4.49918,0,0,1-4.86645-4.74219l4.18066-72.74219a.50006.50006,0,0,0-.98193-.16015l-20.68311,76.70019a4.50773,4.50773,0,0,1-4.34472,3.3291h-14.367A4.49845,4.49845,0,0,1,346.84652,638.2278Z" />
  <path
     id="path64"
     fill="#ccc"
     transform="translate(-206.46668 -235.93615)"
     d="M383.77889,484.95241a3.53283,3.53283,0,0,0-4.51611-.18848l-10.66187,8.293a4.49611,4.49611,0,0,1-7.0874-2.30664c-5.22973-18.31543-17.07837-64.418-14.15942-96.86621,1.65454-18.39258,17.53711-32.37109,35.405-31.19824,12.21557.81445,20.252,7.86133,23.886,20.94434,8.92261,32.12207,18.72828,91.04394,20.60328,102.53027a4.48018,4.48018,0,0,1-2.13648,4.58887A32.939,32.939,0,0,1,408.42,495.44655C401.30087,495.44655,392.76473,492.968,383.77889,484.95241Z"
     style="fill:#81b4fe" />
  <path
     id="path66"
     fill="#ffb8b8"
     transform="translate(-206.46668 -235.93615)"
     d="M387.8018,496.379a10.05578,10.05578,0,0,0-10.9788-10.8269l-14.87184-32.49319-9.84154,15.74731L367.741,497.24808a10.11027,10.11027,0,0,0,20.06081-.86908Z" />
  <path
     id="path68"
     fill="#ccc"
     transform="translate(-206.46668 -235.93615)"
     d="M361.00961,484.81179a4.505,4.505,0,0,1-2.91114-2.2334l-15.65918-28.90918a46.3735,46.3735,0,0,1-4.45434-32.33887l8.17846-36.123a14.49652,14.49652,0,1,1,28.99268.14161l-9.98145,57.89257,8.25367,31.18067a4.51469,4.51469,0,0,1-1.78858,4.85156l-7.02295,4.86133a4.50565,4.50565,0,0,1-2.56372.7998A4.455,4.455,0,0,1,361.00961,484.81179Z"
     style="fill:#81b4fe" />
  <polygon
     id="polygon70"
     opacity="0.2"
     points="166.697 173.828 157.697 211.828 170.697 243.828 161.697 212.828 166.697 173.828"
     style="fill:#81b4fe" />
  <path
     style="fill:#0e232e"
     id="path72"
     fill="#2f2e41"
     d="m 160.61575,113.7877 a 16.53847,16.53847 0 0 1 -6.388,-1.15575 c -0.89411,-0.34457 -1.82226,-0.62779 -2.71471,-0.97258 -7.8817,-3.04509 -13.07367,-11.43907 -13.25962,-19.886505 -0.18595,-8.44743 4.18867,-16.64645 10.68463,-22.0498 6.49596,-5.40335 14.90986,-8.17746 23.33495,-8.819 9.07522,-0.691 19.29422,1.61043 24.36535,9.16826 1.34985,2.01177 2.29389,4.45258 1.494,6.8816 a 4.40341,4.40341 0 0 1 -1.24079,1.90593 c -2.2647,2.01487 -4.52249,0.49989 -6.83116,0.366 -3.17324,-0.184 -6.02338,2.38457 -7.04776,5.39355 -1.02438,3.00898 -0.57345,6.32161 0.25367,9.39068 a 23.45956,23.45956 0 0 1 1.18249,5.71008 5.74054,5.74054 0 0 1 -2.37856,5.054725 c -1.98288,1.19858 -4.58693,0.50489 -6.571,-0.69176 -1.98407,-1.19665 -3.69841,-2.86047 -5.84154,-3.74105 -2.14313,-0.880585 -5.02244,-0.685255 -6.26984,1.26729 a 6.93473,6.93473 0 0 0 -0.79266,2.28861 c -1.11828,5.09485 -0.86126,4.7948 -1.97954,9.88965 z" />
  <path
     id="path74"
     fill="#e6e6e6"
     d="m 370.00429,180.1367 a 7.510361,7.5734473 0 0 1 -1.40371,-6.49572 177.90355,179.39792 0 0 0 -5.2e-4,-83.319089 7.5122908,7.5753933 0 0 1 1.40423,-6.495728 7.3850287,7.4470621 0 0 1 5.83328,-2.850003 h 69.32 a 7.4790324,7.5418553 0 0 1 7.36643,6.32136 291.18573,293.63166 0 0 1 0,89.36782 7.4790324,7.5418553 0 0 1 -7.36643,6.32136 h -69.32 a 7.3850287,7.4470621 0 0 1 -5.83328,-2.85 z"
     style="stroke-width:1.74584" />
  <path
     id="path80"
     fill="#ff6584"
     d="m 248.32104,121.88416 a 285.03176,230.49437 0 0 1 0,-70.14377 7.3213256,5.9204782 0 0 1 7.20992,-4.961562 h 67.84775 a 7.2261031,5.8434753 0 0 1 5.70937,2.23776 7.3495554,5.9433066 0 0 1 1.37387,5.097596 174.12385,140.80735 0 0 0 -5.1e-4,65.396186 7.3476667,5.9417791 0 0 1 -1.37336,5.09759 7.2261031,5.8434753 0 0 1 -5.70937,2.23776 h -67.84775 a 7.3213256,5.9204782 0 0 1 -7.20992,-4.96156 z"
     style="fill:#ff0019;fill-opacity:1;stroke-width:1.53019" />
  <path
     id="path82"
     fill="#003377"
     d="m 295.89604,284.26911 a 7.3627294,7.0150215 0 0 1 -1.3761,-6.01672 174.39255,166.15679 0 0 0 -5.3e-4,-77.17556 7.364641,7.0168427 0 0 1 1.37669,-6.01671 7.2399183,6.8980101 0 0 1 5.71863,-2.63987 h 67.95732 a 7.3320098,6.9857526 0 0 1 7.2216,5.85528 285.46056,271.97957 0 0 1 0,82.77828 7.3320098,6.9857526 0 0 1 -7.2216,5.85526 h -67.95738 a 7.2399183,6.8980101 0 0 1 -5.71863,-2.63996 z"
     style="stroke-width:1.63676;fill:#147bfd;fill-opacity:1" />
  <path
     id="path84"
     fill="#3f3d56"
     transform="translate(-206.46668 -235.93615)"
     d="M219.04862,664.06385h773.294a1.19068,1.19068,0,1,0,0-2.38137h-773.294a1.19069,1.19069,0,1,0,0,2.38137Z" />
  <path
     id="path100"
     fill="#fff"
     transform="translate(-206.46668 -235.93615)"
     d="M553.639,257.83117H532.71564a3.00328,3.00328,0,0,1-3-3v-1.17236a3.00328,3.00328,0,0,1,3-3H553.639a3.00328,3.00328,0,0,1,3,3v1.17236A3.00328,3.00328,0,0,1,553.639,257.83117Z" />
  <text
     transform="scale(0.9733335,1.0273971)"
     id="text946"
     y="39.598785"
     x="473.35785"
     style="font-size:45.3088px;line-height:1.65;font-family:Sahadeva;-inkscape-font-specification:Sahadeva;letter-spacing:0px;word-spacing:0px;stroke-width:0.809083"
     xml:space="preserve"><tspan
       style="font-style:normal;font-variant:normal;font-weight:bold;font-stretch:normal;font-size:45.3088px;font-family:'Lohit Bengali';-inkscape-font-specification:'Lohit Bengali Bold';stroke-width:0.809083"
       y="39.598785"
       x="473.35785"
       id="tspan944"
       sodipodi:role="line"><tspan
   style="fill:#d63384"
   id="tspan903">P</tspan>roveedores</tspan><tspan
       style="font-style:normal;font-variant:normal;font-weight:bold;font-stretch:normal;font-size:45.3088px;font-family:'Lohit Bengali';-inkscape-font-specification:'Lohit Bengali Bold';stroke-width:0.809083"
       y="115.59721"
       x="473.35785"
       sodipodi:role="line"
       id="tspan74"> <tspan
   style="fill:#5a9cfe;stroke-width:0.809083"
   id="tspan899">R</tspan><tspan
   style="fill:#191919;fill-opacity:1"
   id="tspan901">aloy</tspan></tspan></text>
  <g
     transform="matrix(4.6954153,0,0,5.7557804,1588.8253,8.9091568)"
     id="g3294" />
  <text
     xml:space="preserve"
     style="font-style:normal;font-weight:normal;font-size:25.2552px;line-height:1.25;font-family:sans-serif;fill:#ffffff;fill-opacity:1;stroke:none;stroke-width:0.631379"
     x="251.09258"
     y="81.911263"
     id="text907"
     transform="scale(1.05801,0.94517061)"><tspan
       sodipodi:role="line"
       id="tspan905"
       x="251.09258"
       y="81.911263"
       style="font-style:normal;font-variant:normal;font-weight:bold;font-stretch:normal;font-family:Roboto;-inkscape-font-specification:'Roboto Bold';fill:#ffffff;fill-opacity:1;stroke-width:0.631379">PDF</tspan></text>
  <text
     xml:space="preserve"
     style="font-style:normal;font-weight:normal;font-size:36.9033px;line-height:1.25;font-family:sans-serif;fill:#abdee5;fill-opacity:1;stroke:none;stroke-width:0.922583;"
     x="453.87784"
     y="113.27649"
     id="text911-4"
     transform="scale(0.82523047,1.2117827)"><tspan
       sodipodi:role="line"
       id="tspan909-0"
       x="453.87784"
       y="113.27649"
       style="font-size:24.6022px;fill:#abdee5;fill-opacity:1;stroke-width:0.922583;">&lt;<tspan
   style="font-style:normal;font-variant:normal;font-weight:bold;font-stretch:normal;font-family:sans-serif;-inkscape-font-specification:'sans-serif Bold';fill:#abdee5;"
   id="tspan969">XML</tspan>&gt;</tspan></text>
  <ellipse
     style="fill:#ffffff;fill-opacity:1;stroke-width:1.88976;stroke-linecap:round"
     id="path931"
     cx="289.43683"
     cy="95.834991"
     rx="23.064022"
     ry="4.162375" />
  <ellipse
     style="fill:#ffffff;fill-opacity:1;stroke-width:1.88976;stroke-linecap:round"
     id="path931-8"
     cx="294.24323"
     cy="110.59731"
     rx="23.064022"
     ry="4.162375" />
  <text
     xml:space="preserve"
     style="font-style:normal;font-weight:normal;font-size:26.6667px;line-height:1.25;font-family:sans-serif;fill:#a8cbfe;fill-opacity:1;stroke:none"
     x="308.22443"
     y="237.06184"
     id="text967"><tspan
       sodipodi:role="line"
       id="tspan965"
       x="308.22443"
       y="237.06184"
       style="font-style:normal;font-variant:normal;font-weight:bold;font-stretch:normal;font-size:26.6667px;font-family:sans-serif;-inkscape-font-specification:'sans-serif Bold';fill:#a8cbfe">DOC</tspan></text>
  <text
     xml:space="preserve"
     style="font-style:normal;font-weight:normal;font-size:36.9033px;line-height:1.25;font-family:sans-serif;fill:#094bac;fill-opacity:1;stroke:none;stroke-width:0.922583"
     x="454.87518"
     y="112.8449"
     id="text911-4-1"
     transform="scale(0.82523047,1.2117827)"><tspan
       sodipodi:role="line"
       id="tspan909-0-9"
       x="454.87518"
       y="112.8449"
       style="font-size:24.6022px;fill:#094bac;fill-opacity:1;stroke-width:0.922583">&lt;<tspan
   style="font-style:normal;font-variant:normal;font-weight:bold;font-stretch:normal;font-family:sans-serif;-inkscape-font-specification:'sans-serif Bold';fill:#094bac"
   id="tspan969-9">XML</tspan>&gt;</tspan></text>
  <g
     inkscape:groupmode="layer"
     id="layer1"
     inkscape:label="raloy"
     sodipodi:insensitive="true" />
  <g
     inkscape:groupmode="layer"
     id="layer2"
     inkscape:label="logo">
    <path
       d="m 598.87584,281.28976 c 0.91557,-3.26404 0.44578,-6.99319 -1.49786,-9.96142 -6.84957,-11.58762 -6.55548,-11.09093 -6.57133,-11.11568 -0.741,-1.15637 -2.27811,-1.07773 -2.93682,0.0272 l -6.62667,11.15095 c -1.82456,2.86299 -3.31695,7.43888 -2.35675,10.79447 2.98153,6.95718 3.54666,4.61088 3.54666,4.61088 -1.37748,1.3703 5.67167,3.66159 8.56316,4.94333 3.54588,-1.7311 -4.73852,-0.92119 0.72467,-3.34312 2.89143,-1.28182 6.46766,-3.26639 6.46766,-5.26572 -7e-5,-2.07077 -0.8944,1.72596 0,0 z m -16.16245,-8.76021 c 0.0127,-0.0206 -0.29335,0.49467 6.63308,-11.16069 0.10074,0.17027 6.54999,11.08213 6.57092,11.11398 2.8428,4.32102 1.85006,10.51323 -2.3823,13.30721 -2.44344,1.61312 -5.58613,1.77691 -8.3688,-0.0583 -4.19939,-2.77213 -5.2166,-8.87931 -2.4529,-13.202 z m 7.82197,15.69275 c -8.72132,2.35989 -3.01374,-0.22987 -8.05016,-2.46274 -2.10132,-0.9315 1.86821,3.06848 1.86821,1.97199 0,-1.14475 -2.35449,-0.0932 -0.0825,-1.01819 -0.062,8.79437 4.80242,3.16453 0.0825,1.01819 1.28116,3.14033 12.74643,1.41248 13.83515,-4.6009 1.93979,-10.71377 -0.0851,-1.2138 -0.0851,-0.0737 0,1.09645 -4.50776,4.33745 -6.69992,4.93061 z"
       id="path1098"
       style="fill:#fea75f;stroke-width:0;stroke-miterlimit:4;stroke-dasharray:none"
       sodipodi:nodetypes="ccccccscccccsccccsssccccssss" />
  </g>
  <ellipse
     style="fill:none;stroke:#20c1ff;stroke-width:1.7879;stroke-linecap:round;stroke-miterlimit:4;stroke-dasharray:none;stroke-opacity:1"
     id="path1113"
     transform="matrix(0.75398,-0.65689738,0.9201343,0.39160296,0,0)"
     ry="4.9208283"
     rx="18.623999"
     cy="660.93085"
     cx="-24.699306" />
  <ellipse
     style="fill:none;stroke:#000000;stroke-width:1.7879;stroke-linecap:round;stroke-miterlimit:4;stroke-dasharray:none;stroke-opacity:1"
     id="path1113-5"
     transform="matrix(0.75398,-0.65689738,0.9201343,0.39160296,0,0)"
     ry="4.9208283"
     rx="18.623999"
     cy="660.95618"
     cx="-23.819223" />
  <ellipse
     style="fill:#31ccff;fill-opacity:1;stroke:#000000;stroke-width:0.0839025;stroke-linecap:round;stroke-miterlimit:4;stroke-dasharray:none;stroke-opacity:1"
     id="path1234"
     cx="601.23462"
     cy="268.38574"
     rx="1.5871238"
     ry="1.4692054" />
</svg>
